<svg xmlns="http://www.w3.org/2000/svg" viewBox="0 0 961.49 568.09"><defs><style>.cls-1{font-size:59px;font-family:BDGeminis, BD Geminis;}</style></defs><title>Asset 1</title><g id="Layer_2" data-name="Layer 2"><g id="Layer_1-2" data-name="Layer 1"><text class="cls-1" transform="matrix(0.43, -0.9, 0.9, 0.43, 48.79, 256.8)">T</text><text class="cls-1" transform="matrix(0.57, -0.82, 0.82, 0.57, 61.99, 228.79)">H</text><text class="cls-1" transform="translate(79.66 202.95) rotate(-47.84)">e</text><text class="cls-1" transform="translate(101.12 179.65) rotate(-42.42)"> </text><text class="cls-1" transform="matrix(0.78, -0.62, 0.62, 0.78, 115.95, 165.96)">i</text><text class="cls-1" transform="translate(134.63 150.4) rotate(-32.44)">m</text><text class="cls-1" transform="translate(176.54 124.22) rotate(-26.85)">p</text><text class="cls-1" transform="matrix(0.92, -0.39, 0.39, 0.92, 207.11, 108.78)">o</text><text class="cls-1" transform="matrix(0.94, -0.34, 0.34, 0.94, 236.5, 96.32)">s</text><text class="cls-1" transform="translate(266.66 85.57) rotate(-16.48)">s</text><text class="cls-1" transform="matrix(0.97, -0.24, 0.24, 0.97, 297.45, 76.55)">i</text><text class="cls-1" transform="matrix(0.98, -0.2, 0.2, 0.98, 321.54, 70.48)">b</text><text class="cls-1" transform="translate(355.4 63.78) rotate(-8.74)">l</text><text class="cls-1" transform="matrix(0.99, -0.11, 0.11, 0.99, 382.85, 59.5)">e</text><text class="cls-1" transform="translate(414.96 56.03) rotate(-4.31)"> </text><text class="cls-1" transform="translate(435.42 54.3) rotate(-2.05)">q</text><text class="cls-1" transform="translate(474.56 52.97) rotate(0.58)">u</text><text class="cls-1" transform="matrix(1, 0.05, -0.05, 1, 506.73, 53.36)">i</text><text class="cls-1" transform="matrix(1, 0.09, -0.09, 1, 531.6, 54.43)">z</text><text class="cls-1" transform="translate(566.05 57.58) rotate(6.91)">.</text><text class="cls-1" transform="translate(581.39 59.44) rotate(8.14)">.</text><text class="cls-1" transform="matrix(0.99, 0.16, -0.16, 0.99, 596.69, 61.62)">.</text><text class="cls-1" transform="matrix(0.98, 0.19, -0.19, 0.98, 611.91, 64.1)"> </text><text class="cls-1" transform="matrix(0.97, 0.22, -0.22, 0.97, 632.12, 67.9)">2</text><text class="cls-1" transform="translate(660 74.28) rotate(15.71)">0</text><text class="cls-1" transform="matrix(0.95, 0.32, -0.32, 0.95, 690.78, 83)">1</text><text class="cls-1" transform="translate(714.24 90.75) rotate(21.12)">9</text><text class="cls-1" transform="translate(740.89 101.12) rotate(23.8)"> </text><text class="cls-1" transform="translate(759.61 109.18) rotate(26.91)">e</text><text class="cls-1" transform="translate(788.1 123.58) rotate(31.12)">d</text><text class="cls-1" transform="translate(815.38 140.15) rotate(35.34)">i</text><text class="cls-1" transform="translate(835.46 154.13) rotate(40.14)">t</text><text class="cls-1" transform="matrix(0.7, 0.72, -0.72, 0.7, 859.51, 174.53)">i</text><text class="cls-1" transform="matrix(0.61, 0.79, -0.79, 0.61, 876.63, 191.6)">o</text><text class="cls-1" transform="translate(895.99 215.8) rotate(61.2)">n</text></g></g></svg>