<svg xmlns="http://www.w3.org/2000/svg" viewBox="0 0 674.58 674.58"><defs><style>.cls-1{font-size:62px;fill:red;font-family:BDGeminis, BD Geminis;}</style></defs><title>Asset 1</title><g id="Layer_2" data-name="Layer 2"><g id="Layer_1-2" data-name="Layer 1"><text class="cls-1" transform="matrix(0.54, -0.84, 0.84, 0.54, 91.45, 199)">T</text><text class="cls-1" transform="translate(109.29 171.26) rotate(-50.41)">H</text><text class="cls-1" transform="translate(130.32 145.72) rotate(-43.73)">E</text><text class="cls-1" transform="matrix(0.79, -0.62, 0.62, 0.79, 154.52, 122.9)"> </text><text class="cls-1" transform="matrix(0.83, -0.55, 0.55, 0.83, 171.01, 109.74)">I</text><text class="cls-1" transform="matrix(0.9, -0.43, 0.43, 0.9, 191.48, 94.99)">M</text><text class="cls-1" transform="translate(237.96 73.17) rotate(-16.86)">P</text><text class="cls-1" transform="translate(271.82 62.91) rotate(-9.87)">O</text><text class="cls-1" transform="translate(304.26 57.19) rotate(-3.2)">S</text><text class="cls-1" transform="translate(337.19 55.28) rotate(3.41)">S</text><text class="cls-1" transform="matrix(0.99, 0.16, -0.16, 0.99, 370.2, 57.38)">I</text><text class="cls-1" transform="matrix(0.96, 0.27, -0.27, 0.96, 395.34, 61.17)">B</text><text class="cls-1" transform="matrix(0.93, 0.38, -0.38, 0.93, 429.52, 70.83)">L</text><text class="cls-1" transform="translate(455.94 81.37) rotate(28.41)">E</text><text class="cls-1" transform="translate(485.09 97.41) rotate(33.93)"> </text><text class="cls-1" transform="translate(502.74 108.57) rotate(40.14)">Q</text><text class="cls-1" transform="translate(533.41 134.64) rotate(47.52)">U</text><text class="cls-1" transform="matrix(0.6, 0.8, -0.8, 0.6, 555.66, 159.14)">I</text><text class="cls-1" transform="matrix(0.51, 0.86, -0.86, 0.51, 571.07, 179.36)">Z</text><text class="cls-1" transform="translate(588.79 210.22) rotate(65.4)"> </text><text class="cls-1" transform="translate(597.77 229.25) rotate(70.58)">2</text><text class="cls-1" transform="translate(607.68 256.89) rotate(76.96)">0</text><text class="cls-1" transform="translate(614.99 289.07) rotate(82.91)">1</text><text class="cls-1" transform="translate(618.27 314.3) rotate(88.46)">9</text><text class="cls-1" transform="matrix(-0.06, 1, -1, -0.06, 618.93, 343.85)"> </text><text class="cls-1" transform="matrix(-0.16, 0.99, -0.99, -0.16, 617.99, 364.81)">e</text><text class="cls-1" transform="matrix(-0.27, 0.96, -0.96, -0.27, 612.88, 397.49)">d</text><text class="cls-1" transform="matrix(-0.37, 0.93, -0.93, -0.37, 603.72, 429.38)">i</text><text class="cls-1" transform="translate(594.49 453.14) rotate(117.77)">t</text><text class="cls-1" transform="translate(578.95 482.35) rotate(123.73)">i</text><text class="cls-1" transform="translate(565.03 503.67) rotate(129.66)">o</text><text class="cls-1" transform="translate(544.22 529.14) rotate(136.8)">n</text><text class="cls-1" transform="matrix(-0.8, 0.61, -0.61, -0.8, 516.23, 554.89)"> </text><text class="cls-1" transform="translate(499.75 567.84) rotate(148.25)">T</text><text class="cls-1" transform="translate(471.76 585.26) rotate(154.98)">H</text><text class="cls-1" transform="translate(441.84 599.31) rotate(161.75)">E</text><text class="cls-1" transform="matrix(-0.98, 0.22, -0.22, -0.98, 410.16, 609.49)"> </text><text class="cls-1" transform="translate(389.61 614.26) rotate(172.08)">I</text><text class="cls-1" transform="translate(364.84 618.36) rotate(179.07)">M</text><text class="cls-1" transform="translate(313.42 618.39) rotate(-171.49)">P</text><text class="cls-1" transform="translate(278.41 613.16) rotate(-164.51)">O</text><text class="cls-1" transform="translate(246.65 604.43) rotate(-157.76)">S</text><text class="cls-1" transform="translate(216.12 592.03) rotate(-151.03)">S</text><text class="cls-1" transform="matrix(-0.82, -0.57, 0.57, -0.82, 187.25, 575.89)">I</text><text class="cls-1" transform="matrix(-0.75, -0.66, 0.66, -0.75, 166.21, 561.61)">B</text><text class="cls-1" transform="matrix(-0.67, -0.74, 0.74, -0.67, 139.52, 538.16)">L</text><text class="cls-1" transform="translate(120.16 517.28) rotate(-126.21)">E</text><text class="cls-1" transform="translate(100.7 490.29) rotate(-120.71)"> </text><text class="cls-1" transform="translate(89.53 472.66) rotate(-114.45)">Q</text><text class="cls-1" transform="translate(73.01 435.97) rotate(-106.98)">U</text><text class="cls-1" transform="translate(63.49 404.31) rotate(-100.99)">I</text><text class="cls-1" transform="translate(58.31 379.39) rotate(-94.79)">Z</text><text class="cls-1" transform="translate(55.64 343.95) rotate(-89.07)"> </text><text class="cls-1" transform="translate(55.74 322.85) rotate(-84.03)">2</text><text class="cls-1" transform="matrix(0.21, -0.98, 0.98, 0.21, 58.63, 293.63)">0</text><text class="cls-1" transform="translate(65.81 261.42) rotate(-71.7)">1</text><text class="cls-1" transform="translate(73.64 237.24) rotate(-66.08)">9</text><text class="cls-1" transform="matrix(0.49, -0.87, 0.87, 0.49, 85.77, 210.26)"> </text></g></g></svg>